<?xml version="1.0" encoding="UTF-8" standalone="no"?>
<svg width="100%" height="100%" viewBox="0 0 1024 1024" version="1.1" xmlns="http://www.w3.org/2000/svg" style="fill-rule:evenodd;clip-rule:evenodd;">
    <!-- Xpier：粉底（选中候选条同款粉 #FFAAB8）+ 白色真字形「五」。 -->
    <!-- 字形取自 Hiragino Maru Gothic ProN（跟菜单图标同款），描边由 tools/mkappicon.swift 生成。 -->
    <!-- 别手画！上次手画版被认成 E（见交接文档）。底色铺满整幅，圆角由 iconcomposer 按系统规范切。 -->
    <rect x="0" y="0" width="1024" height="1024" style="fill:#ffaab8;"/>
    <path d="M269.7,432.6C255.3,432.6 247.0,444.7 247.0,461.3C247.0,477.2 255.3,489.3 269.7,489.3L413.3,489.3C411.8,495.4 411.1,502.2 409.6,508.2C390.7,598.2 364.9,686.6 335.5,763.8L186.5,763.8C172.9,763.8 163.8,775.1 163.8,791.7C163.8,808.4 172.9,820.5 186.5,820.5L837.5,820.5C851.8,820.5 860.2,808.4 860.2,791.7C860.2,775.1 851.8,763.8 837.5,763.8L723.3,763.8L723.3,499.1C723.3,453.8 696.9,432.6 650.7,432.6L485.2,432.6C496.5,375.9 502.5,318.5 508.6,261.0L802.7,261.0C816.3,261.0 825.4,248.9 825.4,233.0C825.4,216.4 816.3,203.5 802.7,203.5L233.4,203.5C219.8,203.5 210.7,216.4 210.7,233.0C210.7,248.9 219.8,261.0 233.4,261.0L446.6,261.0C441.3,318.5 434.5,375.9 423.9,432.6ZM662.1,763.8L399.7,763.8C425.4,690.4 449.6,607.3 468.5,518.8C470.8,509.0 473.1,499.1 474.6,489.3L637.1,489.3C653.8,489.3 662.1,496.9 662.1,513.5Z" style="fill:#fff;"/>
</svg>